PathFileType	4	(X/Y/Z)	Patient4_TMGait_0pt4_02_left_21.trc.trc
DataRate	CameraRate	NumFrames	NumMarkers	Units	OrigDataRate	OrigDataStartFrame	OrigNumFrames
77.777777777778	77.777777777778	4	33	mm	77.777777777778	1	       141
Frame#	Time	Sacral			L.Shoulder			Chest			R.Shoulder			Neck			R.ASIS			L.ASIS			R.Thigh.Superior			R.Thigh.Lateral			R.Thigh.Inferior			R.Patella			L.Thigh.Superior			L.Thigh.Lateral			L.Thigh.Inferior			L.Patella			L.Shank.Superior			L.Shank.Lateral			L.Shank.Inferior			R.Shank.Superior			R.Shank.Lateral			R.Shank.Inferior			R.Heel			R.Midfoot.Superior			R.Midfoot.Lateral			R.Toe			L.Heel			L.Midfoot.Lateral			L.Midfoot.Superior			L.Toe			L.Elbow			L.Wrist			R.Elbow			R.Wrist			
		X1	Y1	Z1	X2	Y2	Z2	X3	Y3	Z3	X4	Y4	Z4	X5	Y5	Z5	X6	Y6	Z6	X7	Y7	Z7	X8	Y8	Z8	X9	Y9	Z9	X10	Y10	Z10	X11	Y11	Z11	X12	Y12	Z12	X13	Y13	Z13	X14	Y14	Z14	X15	Y15	Z15	X16	Y16	Z16	X17	Y17	Z17	X18	Y18	Z18	X19	Y19	Z19	X20	Y20	Z20	X21	Y21	Z21	X22	Y22	Z22	X23	Y23	Z23	X24	Y24	Z24	X25	Y25	Z25	X26	Y26	Z26	X27	Y27	Z27	X28	Y28	Z28	X29	Y29	Z29	X30	Y30	Z30	X31	Y31	Z31	X32	Y32	Z32	X33	Y33	Z33	

1	28.200000000000	887.925669016985	1005.381612372344	526.130796176451	1038.189199048443	1441.848856566749	340.596882185758	1157.710255981915	1374.823439525130	489.910229127611	1089.742505431097	1440.735371470278	673.225626085974	1033.106281787818	1500.365772825301	499.197259175498	1127.207837165166	944.513782183441	620.059395758838	1088.185997827254	972.734975123653	349.388546930405	1156.716568513198	740.376005856508	583.691035725327	1076.221344399080	631.155788511878	647.376036629372	1146.547529161968	579.719695584549	561.662444775286	1143.220957935587	491.397113421083	566.026293898642	1174.626901618556	792.677501574163	359.715733264501	1125.430144945749	664.875036928084	281.262598737646	1237.903818303392	607.948920112711	325.424186713948	1257.109000555550	525.866963526714	315.256516944886	1209.866323594670	450.273734530275	311.723936740047	1084.712362505026	366.225520389505	272.741240003659	1120.830118155500	237.291828321096	321.212895945478	1111.680865618427	402.392283374762	571.800454547646	1038.643085223389	299.985057631608	635.629344296898	1072.915828472547	205.866565047231	565.847831061700	931.857888342512	42.856598347201	538.620539889030	1106.210142543414	97.019233737103	563.757355949796	1019.825071499291	36.935161272754	607.721492961073	1227.056537455350	44.280715615682	582.295281546428	967.713809463578	108.913764872962	371.803560802237	1028.171877782636	89.551455052985	283.431924598048	1125.595180815737	134.533241073378	296.768493216250	1234.718191793387	59.361538575570	253.331252700196	971.704404882599	1093.539088786283	228.780521964456	1009.961933474661	834.784454706096	213.934884617783	1167.057929632768	1107.865684668462	808.877902371210	1400.750347881232	1006.885012599960	764.034575879608	
2	28.212857142857	887.003195336922	1005.776158339868	527.204342320862	1036.967569465792	1442.137198523272	341.911612308533	1157.511728719440	1374.507420960790	490.133316484346	1091.250799915562	1440.383808074673	674.047113030832	1033.257085645005	1500.338400038748	500.543237289015	1126.165890254802	944.261139739871	619.971449152355	1086.581961925015	972.888640391153	349.486563788537	1153.892826236415	739.900906681040	583.382021782800	1073.052244407912	631.053539587293	647.787622405212	1142.286691993429	579.294810860412	561.722294655227	1138.431290459628	491.198911109574	566.324980612868	1172.545047101122	792.958094876408	360.599487256538	1124.293690760528	665.096699754576	281.674119665867	1235.719755588351	608.110619443207	327.878602618632	1256.449552250803	528.351387734105	317.265325094396	1213.460969677957	452.742926902554	312.203692499949	1095.383277403656	361.843617519323	271.027688254045	1139.603376874395	235.732361342773	318.513568637621	1106.690691115943	402.199752015666	572.097159361738	1033.546646371933	299.883906520588	635.838634373303	1067.639642553731	205.759582734831	565.957669500121	926.370437699235	42.864631189705	538.625844597531	1100.766348010152	96.994715517440	563.774196402524	1014.393241267677	36.947615668344	607.779517697809	1221.593929220901	44.217691235899	582.321080852231	996.339337477144	98.057827226253	366.713858868338	1057.944223136926	83.569692795926	278.619027876421	1151.701475598341	134.109025452105	293.111145027428	1264.826345364408	66.628917528991	249.746152010802	962.257126582345	1095.765869880810	231.599053921743	992.448653991789	836.273242762432	219.185268504647	1176.199156699066	1109.893959052726	808.245517438484	1412.922499549791	1022.874565791064	759.112208811439	
3	28.225714285714	886.077845155086	1006.153246673149	528.232747287386	1035.805335059615	1442.405792489652	343.165657931743	1157.327339733845	1374.169354712106	490.331206631169	1092.721817945639	1440.018385868393	674.820657804224	1033.432720051396	1500.290416134410	501.854548452622	1125.128757182665	944.005779139364	619.891910864886	1085.002892458348	973.005767696327	349.565933486254	1151.123604543718	739.421202714627	583.126311245132	1069.910770519658	630.945822334647	648.194401654543	1138.091205376356	578.866320813994	561.801386278212	1133.699044953045	490.994624196673	566.613305172310	1170.395486760500	793.108348800147	361.483959875090	1123.027623868710	665.263003261274	282.030532814361	1233.390781136567	608.145022314077	330.266509596468	1255.601727992406	530.728050022374	319.276905206372	1216.860540379417	455.206859980110	312.692234702807	1105.995517298302	357.610733159912	269.276889347311	1158.189819149643	234.461976431130	315.904509661223	1101.766814009719	402.003700175996	572.380191554620	1028.514442446744	299.778302237307	636.038718567095	1062.417968608334	205.648419291706	566.058902422367	920.929341342936	42.871455991400	538.630001418842	1095.363802251108	96.966911013570	563.786260738314	1009.001878321357	36.960077720619	607.832341600675	1216.172823036123	44.153347312392	582.347960713043	1024.807401900119	87.770881513289	361.688498890458	1087.611952981448	78.033926507858	273.965093583425	1177.659533195555	134.008007329322	289.633349418574	1294.688026365951	74.126250755717	246.574511891521	952.964116417305	1097.989368664924	234.405519245463	975.204332767765	837.816108122102	224.407298416679	1185.203900662207	1111.893764059939	807.526918084955	1424.754239387140	1038.728693416546	754.163775910097	
4	28.238571428571	885.152077232534	1006.495733657688	529.171891477552	1034.748586115344	1442.634400976089	344.295079650639	1157.164626837227	1373.793295331032	490.473859984527	1094.114831047146	1439.634351734322	675.492469793358	1033.647298863761	1500.204663591030	503.084994284310	1124.109719724852	943.742465380760	619.820742056180	1083.473688405662	973.058624118274	349.606428752740	1148.457238668653	738.930758148508	582.947029652047	1066.826992872724	630.826988105699	648.578351970700	1134.014923928545	578.429282654532	561.897070390418	1129.072211229405	490.776819959916	566.865013407970	1168.152036300688	793.041267422128	362.349986731398	1121.545085773206	665.326985191653	282.294900822147	1230.844731608139	607.969823547503	332.507739047242	1254.451814027402	532.915277187714	321.260986488606	1219.905750129771	457.647677523359	313.192242176772	1116.417063065171	353.674255850385	267.501641592201	1176.299626507546	233.708475525598	313.489632805858	1096.962926000751	401.799511439547	572.624479951581	1023.601175593899	299.664978813842	636.215337155563	1057.291080538979	205.528704690470	566.137443164656	915.565214898261	42.876995417788	538.630914471483	1090.030221250969	96.936784523389	563.793285469131	1003.676876016123	36.973007959003	607.875882401580	1210.820998444388	44.086633126963	582.376985201872	1052.763789100321	78.564784105460	356.855552150370	1116.843809703812	73.319923330845	269.658324531565	1203.142136576208	134.472046262594	286.514898468155	1323.868616517471	81.959352094200	244.154722356213	943.996650357154	1100.192695067927	237.170361166375	958.528556066820	839.448297133544	229.551233537250	1193.917403091605	1113.842308063179	806.633388102753	1435.883280015983	1054.303156957172	749.159251555125	
